# xmcd CD database file
#
# Track frame offsets:
#	150
#	14517
#	26143
#	42763
#	55430
#	71110
#	84143
#	99435
#	111874
#	126337
#	141568
#	151747
#	162141
#	174488
#	187439
#	197921
#	210237
#	223717
#	236787
#	248582
#	260569
#	279850
#	292311
#	303781
#	326148
#
# Disc length: 4520 seconds
#
# Revision: 0
# Processed by: cddbd v1.5.1PL0 Copyright (c) Steve Scherf et al.
# Submitted via: CDex 1.51
#
DISCID=7a11a619
DTITLE=Merle Haggard - Greatest Hits
DYEAR=2004
DGENRE=Country
TTITLE0=Branded Man
TTITLE1=Carolyn
TTITLE2=Daddy Frank (The Guitar Man)
TTITLE3=Hobo's Meditation
TTITLE4=Hungry Eyes
TTITLE5=I Take A Lot Of Pride In What I Am
TTITLE6=I Threw Away the Rose
TTITLE7=If We Make It Through December
TTITLE8=I'm a Lonesome Fugitive
TTITLE9=It's Not Love But It's Not Bad
TTITLE10=Mama Tried
TTITLE11=Movin' On
TTITLE12=Okie From Muskogee
TTITLE13=Sing Me Back Home
TTITLE14=Texas Fiddle Song
TTITLE15=The Bottle Let Me Down
TTITLE16=The Farmer's Daughter
TTITLE17=The Fightin' Side of Me
TTITLE18=Workin' Man Blues
TTITLE19=Rainbow Stew
TTITLE20=Are The Good Times Really Over
TTITLE21=Silver Wings
TTITLE22=Back To The Barrooms Again
TTITLE23=Motorcycle Cowboy
TTITLE24=Misery And Gin
EXTD=YEAR: 2004
EXTT0=
EXTT1=
EXTT2=
EXTT3=
EXTT4=
EXTT5=
EXTT6=
EXTT7=
EXTT8=
EXTT9=
EXTT10=
EXTT11=
EXTT12=
EXTT13=
EXTT14=
EXTT15=
EXTT16=
EXTT17=
EXTT18=
EXTT19=
EXTT20=
EXTT21=
EXTT22=
EXTT23=
EXTT24=
PLAYORDER=
